<svg xmlns="http://www.w3.org/2000/svg" width="32" height="32" viewBox="0 0 32 32">
  <g id="icDocuments" transform="translate(-211 -286)">
    <g id="Gruppe_352" data-name="Gruppe 352" transform="translate(-524 -581)">
      <path id="Differenzmenge_1" data-name="Differenzmenge 1" d="M-284.912-2164h-9.334a1.892,1.892,0,0,1-1.754-2v-16a1.892,1.892,0,0,1,1.754-2h15.781a1.892,1.892,0,0,1,1.754,2v12h-1.754v-12h-15.781v16h9.334v2Z" transform="translate(1031.635 3056)" fill="#2061ae"/>
      <rect id="Rechteck_422" data-name="Rechteck 422" width="14.003" height="9.124" rx="1.2" transform="translate(746.58 886)" fill="none" stroke="#2061ae" stroke-width="1.6"/>
      <text id="PDF" transform="translate(749.082 892.26)" fill="#2061ae" font-size="5" font-family="Roboto-Black, Roboto" font-weight="800"><tspan x="0" y="0">PDF</tspan></text>
      <line id="Linie_74" data-name="Linie 74" x2="10.324" transform="translate(740.176 877.727)" fill="none" stroke="#2061ae" stroke-linecap="round" stroke-width="1.5"/>
      <line id="Linie_75" data-name="Linie 75" x2="10.324" transform="translate(740.176 882.114)" fill="none" stroke="#2061ae" stroke-linecap="round" stroke-width="1.5"/>
      <line id="Linie_76" data-name="Linie 76" x2="2.338" transform="translate(740.378 886.5)" fill="none" stroke="#2061ae" stroke-linecap="round" stroke-width="1.5"/>
    </g>
    <rect id="Rechteck_535" data-name="Rechteck 535" width="32" height="32" transform="translate(211 286)" fill="none"/>
  </g>
</svg>
